<svg width="360" height="77" viewBox="0 0 360 77" fill="none" xmlns="http://www.w3.org/2000/svg">
	<rect x="27.1" y="26.9" width="47.6" height="47.6" fill="#ff9f5b" />
	<rect x="1" y="0" width="47.6" height="47.6" fill="#f35a4f" />
	<rect x="27.6" y="26.9" width="21.3" height="20.5" fill="#50eaf4" />
	<path
		d="M 91.4 49 V 47.3 L 94.1 46.7 V 29 L 91.4 28.5 V 26.8 L 97.3 26.6 H 107.2 V 31.9 H 105.2 L 104.7 29 H 97.3 V 36.6 H 104.8 V 39 H 97.3 V 46.7 L 100.6 47.3 V 49 H 91.4 Z M 116 31.7 C 118.4 31.7 120.3 32.5 121.6 34 C 123 35.4 123.7 37.5 123.7 40.2 C 123.7 42.1 123.4 43.7 122.7 45.1 C 122 46.4 121.1 47.5 119.8 48.2 C 118.6 48.9 117.2 49.3 115.4 49.3 C 113.1 49.3 111.2 48.6 109.9 47.1 C 108.6 45.7 107.9 43.6 107.9 40.9 C 107.9 38.1 108.6 35.8 110.1 34.2 C 111.5 32.5 113.5 31.7 116 31.7 Z M 115.8 34.1 C 114.3 34.1 113.2 34.6 112.4 35.8 C 111.6 36.9 111.2 38.6 111.2 40.7 C 111.2 42.8 111.6 44.4 112.4 45.4 C 113.1 46.5 114.2 47 115.6 47 C 117.2 47 118.3 46.4 119.1 45.3 C 119.9 44.1 120.3 42.5 120.3 40.4 C 120.3 38.3 119.9 36.7 119.2 35.7 C 118.4 34.6 117.3 34.1 115.8 34.1 Z M 133.6 47.3 V 49 H 125.7 V 47.3 L 128.1 46.8 V 26.7 L 125.7 26.2 V 24.5 L 131.3 24.2 V 46.8 L 133.6 47.3 Z M 142 49.3 C 140.8 49.3 139.8 49 138.8 48.4 C 137.8 47.7 137.1 46.7 136.5 45.5 C 136 44.2 135.7 42.6 135.7 40.8 C 135.7 37.8 136.5 35.5 138 34 C 139.6 32.5 141.7 31.7 144.4 31.7 C 145.3 31.7 146.2 31.8 147.2 32 V 26.8 L 144.6 26.2 V 24.5 L 150.4 24.2 V 46.7 L 152.8 47.3 V 49 L 147.9 49.2 L 147.5 46.9 C 145.7 48.5 143.9 49.3 142 49.3 Z M 143.2 46.9 C 144.5 46.9 145.8 46.3 147.2 45.1 V 34.5 C 146.2 34.2 145.2 34.1 144.3 34.1 C 142.6 34.1 141.3 34.6 140.4 35.8 C 139.5 36.9 139 38.5 139 40.5 C 139 42.5 139.4 44.1 140.2 45.2 C 141 46.4 142 46.9 143.2 46.9 Z M 162.5 47.3 V 49 H 154.6 V 47.3 L 156.9 46.8 V 34.4 L 154.6 33.8 V 32.1 L 160.1 31.9 V 46.8 L 162.5 47.3 Z M 158.4 28.8 C 157.8 28.8 157.3 28.6 156.9 28.3 C 156.6 27.9 156.4 27.4 156.4 26.7 C 156.4 26 156.6 25.5 157 25.2 C 157.3 24.8 157.8 24.6 158.4 24.6 C 159 24.6 159.5 24.8 159.8 25.2 C 160.2 25.5 160.4 26 160.4 26.7 C 160.4 27.4 160.2 27.9 159.8 28.3 C 159.5 28.6 159 28.8 158.4 28.8 Z M 164.3 49 V 47.3 L 166.7 46.7 V 34.4 L 164.3 33.8 V 32.1 L 169.2 31.9 L 169.5 34.5 C 170.5 33.5 171.6 32.8 172.7 32.4 C 173.8 31.9 174.8 31.7 175.8 31.7 C 177.2 31.7 178.4 32.2 179.3 33.1 C 180.3 33.9 180.7 35.3 180.7 37.1 V 46.7 L 183.1 47.3 V 49 H 175.3 V 47.3 L 177.5 46.8 V 37.8 C 177.5 36.5 177.2 35.6 176.7 35 C 176.1 34.5 175.4 34.2 174.5 34.2 C 173.8 34.2 173.1 34.4 172.2 34.7 C 171.5 35.1 170.7 35.6 169.9 36.4 V 46.8 L 172.1 47.3 V 49 H 164.3 Z M 191.9 56.7 C 189.4 56.7 187.5 56.3 186.3 55.6 C 185 54.9 184.4 53.9 184.4 52.5 C 184.4 50.8 185.3 49.5 187.3 48.5 C 186.4 48.2 186 47.7 186 46.9 C 186 46.7 186 46.5 186.1 46.2 C 186.2 45.9 186.4 45.5 186.6 45 C 186.9 44.5 187.3 43.8 187.8 42.8 C 185.9 41.8 185 40.1 185 37.9 C 185 36 185.7 34.5 186.9 33.4 C 188.2 32.3 190 31.7 192.2 31.7 C 193.6 31.7 194.8 31.9 195.8 32.3 L 200.5 32.1 L 200.5 34 L 198.2 34.5 C 198.9 35.3 199.2 36.3 199.2 37.6 C 199.2 39.5 198.5 41 197.2 42.2 C 195.9 43.2 194.2 43.8 192 43.8 C 191.1 43.8 190.2 43.7 189.4 43.4 L 188.8 46.5 H 194.4 C 196.5 46.5 198 46.9 199.1 47.7 C 200.2 48.5 200.7 49.7 200.7 51.2 C 200.7 53 200 54.3 198.5 55.3 C 197.1 56.2 194.9 56.7 191.9 56.7 Z M 192 41.6 C 193.3 41.6 194.2 41.2 194.9 40.6 C 195.6 39.9 196 38.9 196 37.7 C 196 36.4 195.6 35.5 195 34.9 C 194.3 34.2 193.4 33.9 192.2 33.9 C 190.9 33.9 189.9 34.3 189.3 34.9 C 188.6 35.6 188.3 36.5 188.3 37.8 C 188.3 39 188.6 40 189.2 40.6 C 189.9 41.3 190.8 41.6 192 41.6 Z M 192.2 54.3 C 194.1 54.3 195.5 54 196.4 53.6 C 197.2 53.1 197.7 52.4 197.7 51.5 C 197.7 49.8 196.4 48.9 193.9 48.9 H 189.2 C 187.8 49.9 187.2 50.8 187.2 51.8 C 187.2 52.7 187.6 53.3 188.4 53.7 C 189.2 54.1 190.5 54.3 192.2 54.3 Z M 209.8 47.3 V 49 H 201.8 V 47.3 L 204 46.7 L 211.5 26.6 L 214.9 26.5 L 222 46.7 L 224.2 47.3 V 49 H 215.6 V 47.3 L 218.3 46.7 L 217 42.8 H 208.4 L 207 46.7 L 209.8 47.3 Z M 209.2 40.5 H 216.3 L 213 29.6 L 209.2 40.5 Z M 232.5 49.3 C 231.1 49.3 229.8 49 228.7 48.3 C 227.6 47.6 226.7 46.6 226 45.4 C 225.4 44.1 225.1 42.5 225.1 40.7 C 225.1 38.6 225.5 36.9 226.2 35.5 C 227 34.2 228.1 33.2 229.3 32.6 C 230.6 32 231.9 31.7 233.3 31.7 C 234.2 31.7 235.2 31.8 236.1 32.1 C 237.1 32.3 238 32.6 238.7 33 L 238.6 37.3 H 236.5 L 236.1 34.5 C 235.6 34.4 235.2 34.2 234.7 34.2 C 234.2 34.1 233.7 34.1 233.3 34.1 C 231.8 34.1 230.5 34.6 229.7 35.8 C 228.8 37 228.4 38.5 228.4 40.5 C 228.4 42.6 228.8 44.2 229.7 45.3 C 230.7 46.3 231.8 46.9 233.2 46.9 C 234.7 46.9 236.4 46.3 238.1 45.1 L 239.3 46.8 C 238.1 47.6 237 48.3 235.8 48.7 C 234.7 49.1 233.6 49.3 232.5 49.3 Z M 251.9 49.2 L 251.5 46.4 C 250.6 47.4 249.6 48.1 248.6 48.6 C 247.6 49.1 246.6 49.3 245.6 49.3 C 244.4 49.3 243.3 48.9 242.4 48.1 C 241.5 47.3 241.1 46.1 241.1 44.5 C 241.1 43.2 241.4 42.3 241.9 41.6 C 242.4 40.9 243.2 40.4 244.1 40.1 C 245.1 39.8 246.2 39.6 247.5 39.6 H 251.1 V 37.2 C 251.1 36.1 250.9 35.3 250.3 34.9 C 249.7 34.4 248.9 34.1 247.9 34.1 C 246.9 34.1 245.9 34.3 244.7 34.7 L 244.4 37.2 H 242.3 L 242 32.9 C 243.3 32.5 244.5 32.2 245.6 32 C 246.7 31.8 247.7 31.7 248.7 31.7 C 250.5 31.7 251.9 32.1 252.8 32.9 C 253.8 33.7 254.3 34.9 254.3 36.6 V 46.7 L 256.7 47.3 V 49 L 251.9 49.2 Z M 244.3 44.2 C 244.3 45.1 244.6 45.8 245 46.3 C 245.4 46.7 246 46.9 246.7 46.9 C 247.4 46.9 248.1 46.7 248.8 46.3 C 249.6 45.9 250.4 45.4 251.1 44.7 V 41.7 H 248 C 246.6 41.7 245.7 41.9 245.1 42.3 C 244.6 42.7 244.3 43.4 244.3 44.2 Z M 265 49.3 C 263.8 49.3 262.7 49 261.7 48.4 C 260.8 47.7 260 46.7 259.5 45.5 C 258.9 44.2 258.7 42.6 258.7 40.8 C 258.7 37.8 259.4 35.5 261 34 C 262.5 32.5 264.6 31.7 267.4 31.7 C 268.2 31.7 269.1 31.8 270.1 32 V 26.8 L 267.6 26.2 V 24.5 L 273.3 24.2 V 46.7 L 275.7 47.3 V 49 L 270.8 49.2 L 270.5 46.9 C 268.7 48.5 266.8 49.3 265 49.3 Z M 266.1 46.9 C 267.4 46.9 268.7 46.3 270.1 45.1 V 34.5 C 269.1 34.2 268.1 34.1 267.3 34.1 C 265.5 34.1 264.2 34.6 263.3 35.8 C 262.4 36.9 262 38.5 262 40.5 C 262 42.5 262.4 44.1 263.1 45.2 C 263.9 46.4 264.9 46.9 266.1 46.9 Z M 285.2 49.3 C 283 49.3 281.2 48.6 279.8 47.1 C 278.4 45.7 277.8 43.6 277.8 40.8 C 277.8 38.9 278.1 37.3 278.7 36 C 279.4 34.6 280.3 33.6 281.5 32.8 C 282.7 32.1 284.1 31.7 285.8 31.7 C 287.3 31.7 288.6 32 289.6 32.7 C 290.6 33.3 291.3 34.2 291.8 35.3 C 292.3 36.4 292.5 37.7 292.5 39.1 C 292.5 39.4 292.5 39.7 292.5 40 C 292.4 40.3 292.4 40.6 292.4 40.9 H 281 C 281.1 42.7 281.6 44.2 282.4 45.3 C 283.2 46.3 284.4 46.9 286 46.9 C 286.7 46.9 287.6 46.7 288.5 46.4 C 289.4 46.1 290.3 45.7 291.3 45.1 L 292.4 46.9 C 291.2 47.7 290 48.3 288.8 48.7 C 287.5 49.1 286.4 49.3 285.2 49.3 Z M 285.5 34.1 C 284.2 34.1 283.2 34.5 282.5 35.4 C 281.8 36.2 281.4 37.3 281.1 38.7 H 289.2 C 289.2 37.9 289.1 37.1 288.9 36.5 C 288.6 35.8 288.2 35.2 287.7 34.8 C 287.1 34.3 286.4 34.1 285.5 34.1 Z M 302.7 47.3 V 49 H 295 V 47.3 L 297.4 46.7 V 34.4 L 295 33.8 V 32.1 L 299.9 31.9 L 300.2 34.5 C 301.2 33.6 302.3 32.9 303.3 32.4 C 304.4 32 305.5 31.7 306.5 31.7 C 307.4 31.7 308.2 32 309 32.4 C 309.7 32.9 310.3 33.6 310.6 34.6 C 311.6 33.6 312.7 32.9 313.8 32.5 C 314.9 32 315.9 31.7 316.9 31.7 C 318.2 31.7 319.3 32.2 320.2 33 C 321.1 33.9 321.6 35.2 321.6 37 V 46.7 L 323.9 47.3 V 49 H 316.2 V 47.3 L 318.4 46.8 V 37.8 C 318.4 36.5 318.1 35.6 317.6 35 C 317 34.5 316.4 34.2 315.6 34.2 C 314.9 34.2 314.2 34.4 313.4 34.8 C 312.6 35.1 311.8 35.7 311.1 36.4 C 311.1 36.6 311.1 36.7 311.1 36.9 V 46.7 L 313.2 47.3 V 49 H 305.7 V 47.3 L 307.9 46.8 V 37.8 C 307.9 36.5 307.6 35.6 307.1 35 C 306.6 34.5 305.9 34.2 305.1 34.2 C 304.4 34.2 303.7 34.4 302.9 34.7 C 302.1 35.1 301.3 35.6 300.6 36.4 V 46.8 L 302.7 47.3 Z M 323.9 56.5 L 324.1 54.2 C 324.4 54.2 324.7 54.3 324.9 54.3 C 325.2 54.3 325.4 54.3 325.6 54.3 C 326.6 54.3 327.3 54.1 327.9 53.7 C 328.5 53.3 329.1 52.7 329.5 51.9 C 329.9 51.2 330.3 50.2 330.8 49 L 325 34.2 L 323.2 33.8 V 32.1 L 330.6 31.9 V 33.6 L 328.2 34.1 L 332.2 45.7 L 336 34.2 L 333.7 33.8 V 32.1 L 340.8 31.9 V 33.6 L 339.1 34.1 L 333.6 49 C 333.1 50.5 332.5 51.8 331.9 53 C 331.2 54.2 330.5 55 329.5 55.7 C 328.6 56.3 327.4 56.7 325.9 56.7 C 325.3 56.7 324.6 56.6 323.9 56.5 Z"
		fill="#535353" />
</svg>